<svg fill="#0400ff" height="64px" width="64px" version="1.1" id="Layer_1" xmlns="http://www.w3.org/2000/svg" xmlns:xlink="http://www.w3.org/1999/xlink" viewBox="0 0 512 512" xml:space="preserve" stroke="#0400ff" stroke-width="8.704"><g id="SVGRepo_bgCarrier" stroke-width="0"></g><g id="SVGRepo_tracerCarrier" stroke-linecap="round" stroke-linejoin="round" stroke="#CCCCCC" stroke-width="40.96"></g><g id="SVGRepo_iconCarrier"> <g> <g> <path d="M509.483,135.334c-2.371-5.084-7.473-8.066-13.084-8.066H14.431c-5.61,0-10.711,2.977-13.081,8.063 c-2.37,5.084-1.577,10.946,2.032,15.241l240.984,286.771c2.742,3.264,6.787,5.115,11.05,5.115c4.263,0,8.307-1.902,11.05-5.165 l240.984-286.849C511.059,146.148,511.851,140.42,509.483,135.334z M255.417,406.105L45.404,156.131h420.022L255.417,406.105z"></path> </g> </g> <g> <g> <path d="M497.568,69.542H15.554c-7.971,0-14.432,6.462-14.432,14.432s6.462,14.432,14.432,14.432h482.014 c7.971,0,14.432-6.462,14.432-14.432S505.539,69.542,497.568,69.542z"></path> </g> </g> </g></svg>